<mxfile host="app.diagrams.net" agent="Mozilla/5.0 (Windows NT 10.0; Win64; x64) AppleWebKit/537.36 (KHTML, like Gecko) Chrome/140.0.0.0 Safari/537.36" version="28.2.5">
  <diagram name="หน้า-1" id="fomsWg2AaQKujRB5xTqD">
    <mxGraphModel dx="1665" dy="743" grid="1" gridSize="10" guides="1" tooltips="1" connect="1" arrows="1" fold="1" page="1" pageScale="1" pageWidth="827" pageHeight="1169" math="0" shadow="0">
      <root>
        <mxCell id="0" />
        <mxCell id="1" parent="0" />
        <mxCell id="FalxJfKno4yVinQrujE8-56" value="" style="edgeStyle=orthogonalEdgeStyle;rounded=0;orthogonalLoop=1;jettySize=auto;html=1;" edge="1" parent="1" source="2" target="FalxJfKno4yVinQrujE8-53">
          <mxGeometry relative="1" as="geometry" />
        </mxCell>
        <mxCell id="2" value="Start" style="ellipse;whiteSpace=wrap;html=1;" vertex="1" parent="1">
          <mxGeometry x="220" width="120" height="40" as="geometry" />
        </mxCell>
        <mxCell id="FalxJfKno4yVinQrujE8-61" value="" style="edgeStyle=orthogonalEdgeStyle;rounded=0;orthogonalLoop=1;jettySize=auto;html=1;" edge="1" parent="1" source="5" target="FalxJfKno4yVinQrujE8-60">
          <mxGeometry relative="1" as="geometry" />
        </mxCell>
        <mxCell id="FalxJfKno4yVinQrujE8-63" value="" style="edgeStyle=orthogonalEdgeStyle;rounded=0;orthogonalLoop=1;jettySize=auto;html=1;" edge="1" parent="1" source="5" target="FalxJfKno4yVinQrujE8-62">
          <mxGeometry relative="1" as="geometry" />
        </mxCell>
        <mxCell id="5" value="ตรวจสอบ: รับค่าเป็นตัวเลขหรือไม่?" style="rhombus;whiteSpace=wrap;html=1;" vertex="1" parent="1">
          <mxGeometry x="145" y="320" width="270" height="80" as="geometry" />
        </mxCell>
        <mxCell id="FalxJfKno4yVinQrujE8-66" value="" style="edgeStyle=orthogonalEdgeStyle;rounded=0;orthogonalLoop=1;jettySize=auto;html=1;" edge="1" parent="1" source="9" target="FalxJfKno4yVinQrujE8-64">
          <mxGeometry relative="1" as="geometry" />
        </mxCell>
        <mxCell id="FalxJfKno4yVinQrujE8-68" value="" style="edgeStyle=orthogonalEdgeStyle;rounded=0;orthogonalLoop=1;jettySize=auto;html=1;" edge="1" parent="1" source="9" target="11">
          <mxGeometry relative="1" as="geometry" />
        </mxCell>
        <mxCell id="9" value="คะแนน &gt;= 80 ?" style="rhombus;whiteSpace=wrap;html=1;" vertex="1" parent="1">
          <mxGeometry x="200" y="520" width="160" height="80" as="geometry" />
        </mxCell>
        <mxCell id="FalxJfKno4yVinQrujE8-69" value="" style="edgeStyle=orthogonalEdgeStyle;rounded=0;orthogonalLoop=1;jettySize=auto;html=1;" edge="1" parent="1" source="11" target="FalxJfKno4yVinQrujE8-67">
          <mxGeometry relative="1" as="geometry" />
        </mxCell>
        <mxCell id="FalxJfKno4yVinQrujE8-73" value="" style="edgeStyle=orthogonalEdgeStyle;rounded=0;orthogonalLoop=1;jettySize=auto;html=1;" edge="1" parent="1" source="11" target="13">
          <mxGeometry relative="1" as="geometry" />
        </mxCell>
        <mxCell id="11" value="คะแนน &gt;= 75 ?" style="rhombus;whiteSpace=wrap;html=1;" vertex="1" parent="1">
          <mxGeometry x="200" y="640" width="160" height="80" as="geometry" />
        </mxCell>
        <mxCell id="FalxJfKno4yVinQrujE8-74" value="" style="edgeStyle=orthogonalEdgeStyle;rounded=0;orthogonalLoop=1;jettySize=auto;html=1;" edge="1" parent="1" source="13" target="FalxJfKno4yVinQrujE8-70">
          <mxGeometry relative="1" as="geometry" />
        </mxCell>
        <mxCell id="FalxJfKno4yVinQrujE8-75" value="" style="edgeStyle=orthogonalEdgeStyle;rounded=0;orthogonalLoop=1;jettySize=auto;html=1;" edge="1" parent="1" source="13" target="15">
          <mxGeometry relative="1" as="geometry" />
        </mxCell>
        <mxCell id="13" value="คะแนน &gt;= 70 ?" style="rhombus;whiteSpace=wrap;html=1;" vertex="1" parent="1">
          <mxGeometry x="200" y="760" width="160" height="80" as="geometry" />
        </mxCell>
        <mxCell id="FalxJfKno4yVinQrujE8-76" value="" style="edgeStyle=orthogonalEdgeStyle;rounded=0;orthogonalLoop=1;jettySize=auto;html=1;" edge="1" parent="1" source="15" target="FalxJfKno4yVinQrujE8-71">
          <mxGeometry relative="1" as="geometry" />
        </mxCell>
        <mxCell id="FalxJfKno4yVinQrujE8-77" value="" style="edgeStyle=orthogonalEdgeStyle;rounded=0;orthogonalLoop=1;jettySize=auto;html=1;" edge="1" parent="1" source="15" target="17">
          <mxGeometry relative="1" as="geometry" />
        </mxCell>
        <mxCell id="15" value="คะแนน &gt;= 65 ?" style="rhombus;whiteSpace=wrap;html=1;" vertex="1" parent="1">
          <mxGeometry x="200" y="880" width="160" height="80" as="geometry" />
        </mxCell>
        <mxCell id="FalxJfKno4yVinQrujE8-78" value="" style="edgeStyle=orthogonalEdgeStyle;rounded=0;orthogonalLoop=1;jettySize=auto;html=1;" edge="1" parent="1" source="17" target="FalxJfKno4yVinQrujE8-72">
          <mxGeometry relative="1" as="geometry" />
        </mxCell>
        <mxCell id="FalxJfKno4yVinQrujE8-81" value="" style="edgeStyle=orthogonalEdgeStyle;rounded=0;orthogonalLoop=1;jettySize=auto;html=1;" edge="1" parent="1" source="17" target="19">
          <mxGeometry relative="1" as="geometry" />
        </mxCell>
        <mxCell id="17" value="คะแนน &gt;= 60 ?" style="rhombus;whiteSpace=wrap;html=1;" vertex="1" parent="1">
          <mxGeometry x="200" y="1000" width="160" height="80" as="geometry" />
        </mxCell>
        <mxCell id="FalxJfKno4yVinQrujE8-82" value="" style="edgeStyle=orthogonalEdgeStyle;rounded=0;orthogonalLoop=1;jettySize=auto;html=1;" edge="1" parent="1" source="19" target="FalxJfKno4yVinQrujE8-79">
          <mxGeometry relative="1" as="geometry" />
        </mxCell>
        <mxCell id="FalxJfKno4yVinQrujE8-86" value="" style="edgeStyle=orthogonalEdgeStyle;rounded=0;orthogonalLoop=1;jettySize=auto;html=1;" edge="1" parent="1" source="19" target="21">
          <mxGeometry relative="1" as="geometry" />
        </mxCell>
        <mxCell id="19" value="คะแนน &gt;= 55 ?" style="rhombus;whiteSpace=wrap;html=1;" vertex="1" parent="1">
          <mxGeometry x="200" y="1120" width="160" height="80" as="geometry" />
        </mxCell>
        <mxCell id="FalxJfKno4yVinQrujE8-83" value="" style="edgeStyle=orthogonalEdgeStyle;rounded=0;orthogonalLoop=1;jettySize=auto;html=1;" edge="1" parent="1" source="21" target="FalxJfKno4yVinQrujE8-80">
          <mxGeometry relative="1" as="geometry" />
        </mxCell>
        <mxCell id="FalxJfKno4yVinQrujE8-85" value="" style="edgeStyle=orthogonalEdgeStyle;rounded=0;orthogonalLoop=1;jettySize=auto;html=1;" edge="1" parent="1" source="21" target="FalxJfKno4yVinQrujE8-84">
          <mxGeometry relative="1" as="geometry" />
        </mxCell>
        <mxCell id="21" value="คะแนน &gt;= 50 ?" style="rhombus;whiteSpace=wrap;html=1;" vertex="1" parent="1">
          <mxGeometry x="200" y="1240" width="160" height="80" as="geometry" />
        </mxCell>
        <mxCell id="24" value="Stop" style="ellipse;whiteSpace=wrap;html=1;" vertex="1" parent="1">
          <mxGeometry x="220" y="1480" width="120" height="40" as="geometry" />
        </mxCell>
        <mxCell id="FalxJfKno4yVinQrujE8-57" value="" style="edgeStyle=orthogonalEdgeStyle;rounded=0;orthogonalLoop=1;jettySize=auto;html=1;" edge="1" parent="1" source="FalxJfKno4yVinQrujE8-53" target="FalxJfKno4yVinQrujE8-54">
          <mxGeometry relative="1" as="geometry" />
        </mxCell>
        <mxCell id="FalxJfKno4yVinQrujE8-53" value="ประกาศตัวแปร score" style="parallelogram;whiteSpace=wrap;html=1;" vertex="1" parent="1">
          <mxGeometry x="200" y="80" width="160" height="40" as="geometry" />
        </mxCell>
        <mxCell id="FalxJfKno4yVinQrujE8-58" value="" style="edgeStyle=orthogonalEdgeStyle;rounded=0;orthogonalLoop=1;jettySize=auto;html=1;" edge="1" parent="1" source="FalxJfKno4yVinQrujE8-54" target="FalxJfKno4yVinQrujE8-55">
          <mxGeometry relative="1" as="geometry" />
        </mxCell>
        <mxCell id="FalxJfKno4yVinQrujE8-54" value="แสดงผล: Please enter your score" style="shape=parallelogram;perimeter=parallelogramPerimeter;whiteSpace=wrap;html=1;fixedSize=1;" vertex="1" parent="1">
          <mxGeometry x="165" y="160" width="230" height="40" as="geometry" />
        </mxCell>
        <mxCell id="FalxJfKno4yVinQrujE8-59" value="" style="edgeStyle=orthogonalEdgeStyle;rounded=0;orthogonalLoop=1;jettySize=auto;html=1;" edge="1" parent="1" source="FalxJfKno4yVinQrujE8-55" target="5">
          <mxGeometry relative="1" as="geometry" />
        </mxCell>
        <mxCell id="FalxJfKno4yVinQrujE8-55" value="รับค่า: score" style="shape=parallelogram;perimeter=parallelogramPerimeter;whiteSpace=wrap;html=1;fixedSize=1;" vertex="1" parent="1">
          <mxGeometry x="210" y="240" width="140" height="40" as="geometry" />
        </mxCell>
        <mxCell id="FalxJfKno4yVinQrujE8-90" style="edgeStyle=orthogonalEdgeStyle;rounded=0;orthogonalLoop=1;jettySize=auto;html=1;entryX=0.5;entryY=0;entryDx=0;entryDy=0;" edge="1" parent="1" source="FalxJfKno4yVinQrujE8-60" target="FalxJfKno4yVinQrujE8-88">
          <mxGeometry relative="1" as="geometry" />
        </mxCell>
        <mxCell id="FalxJfKno4yVinQrujE8-60" value="แสดงผล: Please enter number only." style="shape=parallelogram;perimeter=parallelogramPerimeter;whiteSpace=wrap;html=1;fixedSize=1;" vertex="1" parent="1">
          <mxGeometry x="520" y="340" width="240" height="40" as="geometry" />
        </mxCell>
        <mxCell id="FalxJfKno4yVinQrujE8-65" value="" style="edgeStyle=orthogonalEdgeStyle;rounded=0;orthogonalLoop=1;jettySize=auto;html=1;" edge="1" parent="1" source="FalxJfKno4yVinQrujE8-62" target="9">
          <mxGeometry relative="1" as="geometry" />
        </mxCell>
        <mxCell id="FalxJfKno4yVinQrujE8-62" value="แสดงผล: Grade :" style="shape=parallelogram;perimeter=parallelogramPerimeter;whiteSpace=wrap;html=1;fixedSize=1;" vertex="1" parent="1">
          <mxGeometry x="165" y="440" width="230" height="40" as="geometry" />
        </mxCell>
        <mxCell id="FalxJfKno4yVinQrujE8-89" value="" style="edgeStyle=orthogonalEdgeStyle;rounded=0;orthogonalLoop=1;jettySize=auto;html=1;" edge="1" parent="1" source="FalxJfKno4yVinQrujE8-64" target="FalxJfKno4yVinQrujE8-88">
          <mxGeometry relative="1" as="geometry" />
        </mxCell>
        <mxCell id="FalxJfKno4yVinQrujE8-64" value="แสดงผล: A" style="shape=parallelogram;perimeter=parallelogramPerimeter;whiteSpace=wrap;html=1;fixedSize=1;" vertex="1" parent="1">
          <mxGeometry x="440" y="540" width="120" height="40" as="geometry" />
        </mxCell>
        <mxCell id="FalxJfKno4yVinQrujE8-110" value="" style="edgeStyle=orthogonalEdgeStyle;rounded=0;orthogonalLoop=1;jettySize=auto;html=1;" edge="1" parent="1" source="FalxJfKno4yVinQrujE8-67" target="FalxJfKno4yVinQrujE8-91">
          <mxGeometry relative="1" as="geometry" />
        </mxCell>
        <mxCell id="FalxJfKno4yVinQrujE8-67" value="แสดงผล: B+" style="shape=parallelogram;perimeter=parallelogramPerimeter;whiteSpace=wrap;html=1;fixedSize=1;" vertex="1" parent="1">
          <mxGeometry x="440" y="660" width="120" height="40" as="geometry" />
        </mxCell>
        <mxCell id="FalxJfKno4yVinQrujE8-108" value="" style="edgeStyle=orthogonalEdgeStyle;rounded=0;orthogonalLoop=1;jettySize=auto;html=1;" edge="1" parent="1" source="FalxJfKno4yVinQrujE8-70" target="FalxJfKno4yVinQrujE8-92">
          <mxGeometry relative="1" as="geometry" />
        </mxCell>
        <mxCell id="FalxJfKno4yVinQrujE8-70" value="แสดงผล: B" style="shape=parallelogram;perimeter=parallelogramPerimeter;whiteSpace=wrap;html=1;fixedSize=1;" vertex="1" parent="1">
          <mxGeometry x="440" y="780" width="120" height="40" as="geometry" />
        </mxCell>
        <mxCell id="FalxJfKno4yVinQrujE8-106" value="" style="edgeStyle=orthogonalEdgeStyle;rounded=0;orthogonalLoop=1;jettySize=auto;html=1;" edge="1" parent="1" source="FalxJfKno4yVinQrujE8-71" target="FalxJfKno4yVinQrujE8-93">
          <mxGeometry relative="1" as="geometry" />
        </mxCell>
        <mxCell id="FalxJfKno4yVinQrujE8-71" value="แสดงผล: C+" style="shape=parallelogram;perimeter=parallelogramPerimeter;whiteSpace=wrap;html=1;fixedSize=1;" vertex="1" parent="1">
          <mxGeometry x="440" y="900" width="120" height="40" as="geometry" />
        </mxCell>
        <mxCell id="FalxJfKno4yVinQrujE8-105" value="" style="edgeStyle=orthogonalEdgeStyle;rounded=0;orthogonalLoop=1;jettySize=auto;html=1;" edge="1" parent="1" source="FalxJfKno4yVinQrujE8-72" target="FalxJfKno4yVinQrujE8-94">
          <mxGeometry relative="1" as="geometry" />
        </mxCell>
        <mxCell id="FalxJfKno4yVinQrujE8-72" value="แสดงผล: C" style="shape=parallelogram;perimeter=parallelogramPerimeter;whiteSpace=wrap;html=1;fixedSize=1;" vertex="1" parent="1">
          <mxGeometry x="430" y="1020" width="120" height="40" as="geometry" />
        </mxCell>
        <mxCell id="FalxJfKno4yVinQrujE8-96" value="" style="edgeStyle=orthogonalEdgeStyle;rounded=0;orthogonalLoop=1;jettySize=auto;html=1;" edge="1" parent="1" source="FalxJfKno4yVinQrujE8-79" target="FalxJfKno4yVinQrujE8-95">
          <mxGeometry relative="1" as="geometry" />
        </mxCell>
        <mxCell id="FalxJfKno4yVinQrujE8-79" value="แสดงผล: D+" style="shape=parallelogram;perimeter=parallelogramPerimeter;whiteSpace=wrap;html=1;fixedSize=1;" vertex="1" parent="1">
          <mxGeometry x="430" y="1140" width="120" height="40" as="geometry" />
        </mxCell>
        <mxCell id="FalxJfKno4yVinQrujE8-98" value="" style="edgeStyle=orthogonalEdgeStyle;rounded=0;orthogonalLoop=1;jettySize=auto;html=1;" edge="1" parent="1" source="FalxJfKno4yVinQrujE8-80" target="FalxJfKno4yVinQrujE8-97">
          <mxGeometry relative="1" as="geometry" />
        </mxCell>
        <mxCell id="FalxJfKno4yVinQrujE8-80" value="แสดงผล: D" style="shape=parallelogram;perimeter=parallelogramPerimeter;whiteSpace=wrap;html=1;fixedSize=1;" vertex="1" parent="1">
          <mxGeometry x="440" y="1260" width="120" height="40" as="geometry" />
        </mxCell>
        <mxCell id="FalxJfKno4yVinQrujE8-100" value="" style="edgeStyle=orthogonalEdgeStyle;rounded=0;orthogonalLoop=1;jettySize=auto;html=1;" edge="1" parent="1" source="FalxJfKno4yVinQrujE8-84" target="FalxJfKno4yVinQrujE8-99">
          <mxGeometry relative="1" as="geometry" />
        </mxCell>
        <mxCell id="FalxJfKno4yVinQrujE8-84" value="แสดงผล: F" style="shape=parallelogram;perimeter=parallelogramPerimeter;whiteSpace=wrap;html=1;fixedSize=1;" vertex="1" parent="1">
          <mxGeometry x="220" y="1360" width="120" height="40" as="geometry" />
        </mxCell>
        <mxCell id="FalxJfKno4yVinQrujE8-112" value="" style="edgeStyle=orthogonalEdgeStyle;rounded=0;orthogonalLoop=1;jettySize=auto;html=1;" edge="1" parent="1" source="FalxJfKno4yVinQrujE8-88" target="FalxJfKno4yVinQrujE8-91">
          <mxGeometry relative="1" as="geometry" />
        </mxCell>
        <mxCell id="FalxJfKno4yVinQrujE8-88" value="" style="ellipse;whiteSpace=wrap;html=1;aspect=fixed;" vertex="1" parent="1">
          <mxGeometry x="635" y="555" width="10" height="10" as="geometry" />
        </mxCell>
        <mxCell id="FalxJfKno4yVinQrujE8-111" value="" style="edgeStyle=orthogonalEdgeStyle;rounded=0;orthogonalLoop=1;jettySize=auto;html=1;" edge="1" parent="1" source="FalxJfKno4yVinQrujE8-91" target="FalxJfKno4yVinQrujE8-92">
          <mxGeometry relative="1" as="geometry" />
        </mxCell>
        <mxCell id="FalxJfKno4yVinQrujE8-91" value="" style="ellipse;whiteSpace=wrap;html=1;aspect=fixed;" vertex="1" parent="1">
          <mxGeometry x="635" y="675" width="10" height="10" as="geometry" />
        </mxCell>
        <mxCell id="FalxJfKno4yVinQrujE8-109" value="" style="edgeStyle=orthogonalEdgeStyle;rounded=0;orthogonalLoop=1;jettySize=auto;html=1;" edge="1" parent="1" source="FalxJfKno4yVinQrujE8-92" target="FalxJfKno4yVinQrujE8-93">
          <mxGeometry relative="1" as="geometry" />
        </mxCell>
        <mxCell id="FalxJfKno4yVinQrujE8-92" value="" style="ellipse;whiteSpace=wrap;html=1;aspect=fixed;" vertex="1" parent="1">
          <mxGeometry x="635" y="795" width="10" height="10" as="geometry" />
        </mxCell>
        <mxCell id="FalxJfKno4yVinQrujE8-107" value="" style="edgeStyle=orthogonalEdgeStyle;rounded=0;orthogonalLoop=1;jettySize=auto;html=1;" edge="1" parent="1" source="FalxJfKno4yVinQrujE8-93" target="FalxJfKno4yVinQrujE8-94">
          <mxGeometry relative="1" as="geometry" />
        </mxCell>
        <mxCell id="FalxJfKno4yVinQrujE8-93" value="" style="ellipse;whiteSpace=wrap;html=1;aspect=fixed;" vertex="1" parent="1">
          <mxGeometry x="635" y="915" width="10" height="10" as="geometry" />
        </mxCell>
        <mxCell id="FalxJfKno4yVinQrujE8-104" value="" style="edgeStyle=orthogonalEdgeStyle;rounded=0;orthogonalLoop=1;jettySize=auto;html=1;" edge="1" parent="1" source="FalxJfKno4yVinQrujE8-94" target="FalxJfKno4yVinQrujE8-95">
          <mxGeometry relative="1" as="geometry" />
        </mxCell>
        <mxCell id="FalxJfKno4yVinQrujE8-94" value="" style="ellipse;whiteSpace=wrap;html=1;aspect=fixed;" vertex="1" parent="1">
          <mxGeometry x="635" y="1035" width="10" height="10" as="geometry" />
        </mxCell>
        <mxCell id="FalxJfKno4yVinQrujE8-103" value="" style="edgeStyle=orthogonalEdgeStyle;rounded=0;orthogonalLoop=1;jettySize=auto;html=1;" edge="1" parent="1" source="FalxJfKno4yVinQrujE8-95" target="FalxJfKno4yVinQrujE8-97">
          <mxGeometry relative="1" as="geometry" />
        </mxCell>
        <mxCell id="FalxJfKno4yVinQrujE8-95" value="" style="ellipse;whiteSpace=wrap;html=1;aspect=fixed;" vertex="1" parent="1">
          <mxGeometry x="635" y="1155" width="10" height="10" as="geometry" />
        </mxCell>
        <mxCell id="FalxJfKno4yVinQrujE8-102" style="edgeStyle=orthogonalEdgeStyle;rounded=0;orthogonalLoop=1;jettySize=auto;html=1;entryX=1;entryY=0.5;entryDx=0;entryDy=0;" edge="1" parent="1" source="FalxJfKno4yVinQrujE8-97" target="FalxJfKno4yVinQrujE8-99">
          <mxGeometry relative="1" as="geometry">
            <Array as="points">
              <mxPoint x="640" y="1445" />
            </Array>
          </mxGeometry>
        </mxCell>
        <mxCell id="FalxJfKno4yVinQrujE8-97" value="" style="ellipse;whiteSpace=wrap;html=1;aspect=fixed;" vertex="1" parent="1">
          <mxGeometry x="635" y="1275" width="10" height="10" as="geometry" />
        </mxCell>
        <mxCell id="FalxJfKno4yVinQrujE8-101" value="" style="edgeStyle=orthogonalEdgeStyle;rounded=0;orthogonalLoop=1;jettySize=auto;html=1;" edge="1" parent="1" source="FalxJfKno4yVinQrujE8-99" target="24">
          <mxGeometry relative="1" as="geometry" />
        </mxCell>
        <mxCell id="FalxJfKno4yVinQrujE8-99" value="" style="ellipse;whiteSpace=wrap;html=1;aspect=fixed;" vertex="1" parent="1">
          <mxGeometry x="275" y="1440" width="10" height="10" as="geometry" />
        </mxCell>
        <mxCell id="FalxJfKno4yVinQrujE8-113" value="TRUE" style="text;html=1;align=center;verticalAlign=middle;whiteSpace=wrap;rounded=0;" vertex="1" parent="1">
          <mxGeometry x="280" y="400" width="60" height="30" as="geometry" />
        </mxCell>
        <mxCell id="FalxJfKno4yVinQrujE8-114" value="FALSE" style="text;html=1;align=center;verticalAlign=middle;whiteSpace=wrap;rounded=0;" vertex="1" parent="1">
          <mxGeometry x="413" y="330" width="60" height="30" as="geometry" />
        </mxCell>
        <mxCell id="FalxJfKno4yVinQrujE8-116" value="FALSE" style="text;html=1;align=center;verticalAlign=middle;whiteSpace=wrap;rounded=0;" vertex="1" parent="1">
          <mxGeometry x="280" y="600" width="60" height="30" as="geometry" />
        </mxCell>
        <mxCell id="FalxJfKno4yVinQrujE8-121" value="TRUE" style="text;html=1;align=center;verticalAlign=middle;whiteSpace=wrap;rounded=0;" vertex="1" parent="1">
          <mxGeometry x="360" y="530" width="60" height="30" as="geometry" />
        </mxCell>
        <mxCell id="FalxJfKno4yVinQrujE8-122" value="FALSE" style="text;html=1;align=center;verticalAlign=middle;whiteSpace=wrap;rounded=0;" vertex="1" parent="1">
          <mxGeometry x="280" y="720" width="60" height="30" as="geometry" />
        </mxCell>
        <mxCell id="FalxJfKno4yVinQrujE8-123" value="TRUE" style="text;html=1;align=center;verticalAlign=middle;whiteSpace=wrap;rounded=0;" vertex="1" parent="1">
          <mxGeometry x="360" y="650" width="60" height="30" as="geometry" />
        </mxCell>
        <mxCell id="FalxJfKno4yVinQrujE8-124" value="FALSE" style="text;html=1;align=center;verticalAlign=middle;whiteSpace=wrap;rounded=0;" vertex="1" parent="1">
          <mxGeometry x="280" y="840" width="60" height="30" as="geometry" />
        </mxCell>
        <mxCell id="FalxJfKno4yVinQrujE8-125" value="TRUE" style="text;html=1;align=center;verticalAlign=middle;whiteSpace=wrap;rounded=0;" vertex="1" parent="1">
          <mxGeometry x="360" y="770" width="60" height="30" as="geometry" />
        </mxCell>
        <mxCell id="FalxJfKno4yVinQrujE8-126" value="FALSE" style="text;html=1;align=center;verticalAlign=middle;whiteSpace=wrap;rounded=0;" vertex="1" parent="1">
          <mxGeometry x="280" y="960" width="60" height="30" as="geometry" />
        </mxCell>
        <mxCell id="FalxJfKno4yVinQrujE8-127" value="TRUE" style="text;html=1;align=center;verticalAlign=middle;whiteSpace=wrap;rounded=0;" vertex="1" parent="1">
          <mxGeometry x="360" y="890" width="60" height="30" as="geometry" />
        </mxCell>
        <mxCell id="FalxJfKno4yVinQrujE8-128" value="FALSE" style="text;html=1;align=center;verticalAlign=middle;whiteSpace=wrap;rounded=0;" vertex="1" parent="1">
          <mxGeometry x="280" y="1080" width="60" height="30" as="geometry" />
        </mxCell>
        <mxCell id="FalxJfKno4yVinQrujE8-129" value="TRUE" style="text;html=1;align=center;verticalAlign=middle;whiteSpace=wrap;rounded=0;" vertex="1" parent="1">
          <mxGeometry x="360" y="1010" width="60" height="30" as="geometry" />
        </mxCell>
        <mxCell id="FalxJfKno4yVinQrujE8-130" value="FALSE" style="text;html=1;align=center;verticalAlign=middle;whiteSpace=wrap;rounded=0;" vertex="1" parent="1">
          <mxGeometry x="280" y="1200" width="60" height="30" as="geometry" />
        </mxCell>
        <mxCell id="FalxJfKno4yVinQrujE8-131" value="TRUE" style="text;html=1;align=center;verticalAlign=middle;whiteSpace=wrap;rounded=0;" vertex="1" parent="1">
          <mxGeometry x="360" y="1130" width="60" height="30" as="geometry" />
        </mxCell>
        <mxCell id="FalxJfKno4yVinQrujE8-132" value="FALSE" style="text;html=1;align=center;verticalAlign=middle;whiteSpace=wrap;rounded=0;" vertex="1" parent="1">
          <mxGeometry x="280" y="1320" width="60" height="30" as="geometry" />
        </mxCell>
        <mxCell id="FalxJfKno4yVinQrujE8-133" value="TRUE" style="text;html=1;align=center;verticalAlign=middle;whiteSpace=wrap;rounded=0;" vertex="1" parent="1">
          <mxGeometry x="360" y="1250" width="60" height="30" as="geometry" />
        </mxCell>
      </root>
    </mxGraphModel>
  </diagram>
</mxfile>
